<?xml version="1.0" encoding="UTF-8"?>
<svg width="132px" height="116px" viewBox="0 0 132 116" version="1.1" xmlns="http://www.w3.org/2000/svg" xmlns:xlink="http://www.w3.org/1999/xlink">
    <title>Group</title>
    <defs>
        <path d="M93.0486907,0.00315672682 C88.8746684,0.0202030516 84.7560396,1.9540139 82.4823903,3.86699035 C79.0322597,6.73834907 75.9421865,11.0302349 66.5737695,25.7753058 L66.5706222,25.7759372 L42.5072044,67.5792078 C38.3942408,74.7241433 28.1130909,74.7241433 24.0001273,67.5792078 L50.2748767,113.223584 C51.6376814,115.592391 55.0462669,115.592391 56.4097011,113.223584 L104.525206,29.6366141 C113.893623,14.8902804 116.983696,10.599026 120.433827,7.72766726 C122.707476,5.81405946 126.229996,4.52611491 131.000127,3.86383363 L131.000127,0" id="path-1"></path>
    </defs>
    <g id="Logo-and-Tshirts" stroke="none" stroke-width="1" fill="none" fill-rule="evenodd">
        <g id="Purple-Logo" transform="translate(-62, -65)">
            <g id="Group" transform="translate(62.9999, 66)">
                <g id="Fill-4">
                    <use fill="#FFFFFF" xlink:href="#path-1"></use>
                    <use fill="#4D008E" xlink:href="#path-1"></use>
                </g>
                <path d="M21.0000636,1.13686838e-13 C32.5978926,1.13686838e-13 42.0001273,9.40171225 42.0001273,21.0003182 C42.0001273,32.5982877 32.5978926,42 21.0000636,42 C9.40223469,42 0,32.5982877 0,21.0003182 C0,9.40171225 9.40223469,1.13686838e-13 21.0000636,1.13686838e-13" id="Fill-1" stroke="#4D008E" fill="#4D008E"></path>
            </g>
        </g>
    </g>
</svg>